<svg width="82" height="44" viewBox="0 0 82 44" fill="none" xmlns="http://www.w3.org/2000/svg">
<path d="M1.46929 43.3146C1.07748 43.3146 0.724849 43.1775 0.411401 42.9032C0.137134 42.5898 0 42.2372 0 41.8454V3.70261C0 3.27162 0.137134 2.91899 0.411401 2.64472C0.685668 2.33127 1.0383 2.17455 1.46929 2.17455H18.1016C23.1952 2.17455 27.1917 3.33039 30.091 5.64207C32.9904 7.95375 34.4401 11.3429 34.4401 15.8096C34.4401 20.2762 32.9904 23.6262 30.091 25.8595C27.1917 28.0536 23.1952 29.1507 18.1016 29.1507H11.4017V41.8454C11.4017 42.2372 11.2646 42.5898 10.9903 42.9032C10.716 43.1775 10.3634 43.3146 9.9324 43.3146H1.46929ZM17.8078 20.7464C19.4142 20.7464 20.668 20.335 21.5692 19.5122C22.5095 18.6502 22.9797 17.3964 22.9797 15.7508C22.9797 14.2227 22.5487 12.9885 21.6867 12.0482C20.8639 11.1078 19.5709 10.6377 17.8078 10.6377H11.2254V20.7464H17.8078Z" fill="black"/>
<path d="M38.3608 8.52188C37.9299 8.52188 37.5772 8.38475 37.303 8.11048C37.0287 7.79703 36.8916 7.42481 36.8916 6.99382V1.52806C36.8916 1.09707 37.0287 0.74444 37.303 0.470173C37.6164 0.156724 37.969 0 38.3608 0H45.7073C46.1383 0 46.4909 0.156724 46.7652 0.470173C47.0786 0.74444 47.2354 1.09707 47.2354 1.52806V6.99382C47.2354 7.42481 47.0786 7.79703 46.7652 8.11048C46.4909 8.38475 46.1383 8.52188 45.7073 8.52188H38.3608ZM38.3608 43.3146C37.969 43.3146 37.6164 43.1775 37.303 42.9032C37.0287 42.5898 36.8916 42.2372 36.8916 41.8454V14.2227C36.8916 13.7917 37.0287 13.4391 37.303 13.1648C37.6164 12.8906 37.969 12.7534 38.3608 12.7534H45.7073C46.1383 12.7534 46.4909 12.8906 46.7652 13.1648C47.0786 13.4391 47.2354 13.7917 47.2354 14.2227V41.8454C47.2354 42.2764 47.0786 42.629 46.7652 42.9032C46.4909 43.1775 46.1383 43.3146 45.7073 43.3146H38.3608Z" fill="black"/>
<path d="M65.927 43.9024C61.1469 43.9024 57.3855 42.629 54.6429 40.0822C51.9002 37.4963 50.4897 33.7545 50.4113 28.8568V27.0349C50.568 22.3724 52.0177 18.7285 54.7604 16.1034C57.5031 13.4783 61.2057 12.1657 65.8682 12.1657C69.2378 12.1657 72.0784 12.8514 74.3901 14.2227C76.741 15.5549 78.4845 17.416 79.6208 19.806C80.7962 22.1569 81.3839 24.8408 81.3839 27.8577V29.327C81.3839 29.758 81.2272 30.1302 80.9138 30.4437C80.6395 30.7179 80.2869 30.8551 79.8559 30.8551H61.2253V31.2077C61.2645 32.9709 61.6759 34.401 62.4595 35.498C63.2431 36.5559 64.3598 37.0849 65.8095 37.0849C66.7498 37.0849 67.4943 36.9085 68.0428 36.5559C68.6305 36.1641 69.179 35.6743 69.6884 35.0866C70.041 34.6948 70.3153 34.4597 70.5112 34.3814C70.7463 34.2638 71.0989 34.2051 71.5691 34.2051H79.2682C79.6208 34.2051 79.9146 34.3226 80.1497 34.5577C80.424 34.7536 80.5611 35.0083 80.5611 35.3217C80.5611 36.3404 79.9734 37.5354 78.798 38.9068C77.6617 40.2781 75.977 41.4535 73.7436 42.4331C71.5495 43.4126 68.944 43.9024 65.927 43.9024ZM70.57 24.8604V24.7428C70.57 22.8621 70.1586 21.4124 69.3358 20.3937C68.513 19.3358 67.3571 18.8069 65.8682 18.8069C64.3794 18.8069 63.2235 19.3358 62.4007 20.3937C61.6171 21.4124 61.2253 22.8621 61.2253 24.7428V24.8604H70.57Z" fill="black"/>
</svg>
